# xmcd
#
# Track frame offsets:
#	150
#	15438
#	30058
#	42003
#	62330
#	75088
#	93913
#	121378
#	134860
#	149130
#	169008
#	181808
#
# Disc length: 2629 seconds
#
# Revision: 8
# Processed by: cddbd v1.5.2PL0 Copyright (c) Steve Scherf et al.
# Submitted via: audiograbber 1.83.01
#
DISCID=8b0a430c
DTITLE=Scott Walker  - Scott 2
DYEAR=1968
DGENRE=Pop
TTITLE0=Jackie
TTITLE1=Best Of Both Worlds
TTITLE2=Black Sheep Boy
TTITLE3=The Amorous Humphrey Plugg
TTITLE4=Next
TTITLE5=The Girls From The Streets
TTITLE6=Plastic Palace People
TTITLE7=Wait Until Dark
TTITLE8=The Girls And The Dogs
TTITLE9=Windows Of The World
TTITLE10=The Bridge
TTITLE11=Come Next Spring
EXTD=
EXTT0=
EXTT1=
EXTT2=
EXTT3=
EXTT4=
EXTT5=
EXTT6=
EXTT7=
EXTT8=
EXTT9=
EXTT10=
EXTT11=
PLAYORDER=
